<?xml version="1.0" encoding="utf-8"?>
<!-- Generator: Adobe Illustrator 18.0.0, SVG Export Plug-In . SVG Version: 6.00 Build 0)  -->
<!DOCTYPE svg PUBLIC "-//W3C//DTD SVG 1.1//EN" "http://www.w3.org/Graphics/SVG/1.1/DTD/svg11.dtd">
<svg version="1.1" id="Layer_1" xmlns="http://www.w3.org/2000/svg" xmlns:xlink="http://www.w3.org/1999/xlink" x="0px" y="0px"
	 viewBox="0 0 2048 1152" enable-background="new 0 0 2048 1152" xml:space="preserve">
<g display="none">
	<path display="inline" d="M283.3,461.7c27.3,0,56.3,11.9,76.8,29c3.4,1.7,3.4,5.1,1.7,8.5l-25.6,27.3c-1.7,1.7-5.1,1.7-8.5,0
		c-11.9-11.9-25.6-15.4-42.7-15.4c-35.8,0-63.1,29-63.1,64.9c0,35.8,29,63.1,63.1,63.1c8.5,0,18.8-1.7,29-5.1v-18.8h-20.5
		c-3.4,0-5.1-1.7-5.1-5.1v-32.4c0-3.4,1.7-5.1,5.1-5.1h63.1c3.4,0,5.1,3.4,5.1,5.1V663c0,1.7-1.7,5.1-1.7,5.1s-32.4,20.5-78.5,20.5
		c-63.1,0-114.3-49.5-114.3-114.3S220.2,461.7,283.3,461.7z"/>
	<path display="inline" d="M430.1,466.8c0-3.4,3.4-5.1,5.1-5.1h5.1c1.7,0,5.1,1.7,5.1,3.4l73.4,138.2h1.7l73.4-138.2
		c1.7-1.7,3.4-3.4,5.1-3.4h5.1c1.7,0,5.1,1.7,5.1,5.1l35.8,213.3c1.7,5.1-1.7,6.8-5.1,6.8h-37.5c-3.4,0-5.1-1.7-5.1-5.1l-15.4-99
		h-1.7l-51.2,104.1c-1.7,1.7-3.4,3.4-5.1,3.4h-5.1c-1.7,0-5.1-1.7-5.1-3.4l-52.9-104.1h-1.7l-15.4,100.7c0,1.7-3.4,5.1-5.1,5.1
		h-37.5c-3.4,0-6.8-3.4-5.1-6.8L430.1,466.8z"/>
	<path display="inline" d="M786.8,461.7c63.1,0,114.3,51.2,114.3,114.3s-51.2,114.3-114.3,114.3S672.4,639.1,672.4,576
		S721.9,461.7,786.8,461.7z M786.8,639.1c35.8,0,63.1-29,63.1-63.1c0-34.1-29-63.1-63.1-63.1c-34.1,0-63.1,29-63.1,63.1
		C723.6,610.1,752.6,639.1,786.8,639.1z"/>
	<path display="inline" d="M940.4,470.2c0-3.4,1.7-5.1,5.1-5.1h76.8c61.4,0,110.9,49.5,110.9,110.9s-49.5,110.9-110.9,110.9h-76.8
		c-3.4,0-5.1-3.4-5.1-5.1C940.4,681.8,940.4,470.2,940.4,470.2z M1018.9,640.9c35.8,0,63.1-29,63.1-64.9c0-35.8-25.6-64.9-63.1-64.9
		h-30.7v128L1018.9,640.9L1018.9,640.9z"/>
	<path display="inline" d="M1179.3,470.2c0-3.4,1.7-5.1,5.1-5.1h70c39.3,0,71.7,32.4,71.7,70c0,39.3-32.4,71.7-70,71.7h-52.9v75.1
		c0,3.4-3.4,5.1-5.1,5.1h-11.9c-3.4,0-5.1-3.4-5.1-5.1L1179.3,470.2L1179.3,470.2z M1254.4,582.8c25.6,0,49.5-22.2,49.5-49.5
		c0-25.6-22.2-46.1-49.5-46.1h-51.2v93.9C1203.2,582.8,1254.4,582.8,1254.4,582.8z"/>
	<path display="inline" d="M1351.7,565.8c0-3.4,3.4-5.1,5.1-5.1h5.1c1.7,0,5.1,1.7,5.1,5.1l1.7,8.5c0,0,11.9-17.1,39.3-17.1
		c8.5,0,25.6,1.7,22.2,10.2l-3.4,11.9c-1.7,5.1-5.1,5.1-8.5,3.4c-3.4-1.7-8.5-1.7-11.9-1.7c-23.9,0-35.8,18.8-35.8,18.8v85.3
		c0,3.4-3.4,5.1-5.1,5.1h-10.2c-3.4,0-5.1-3.4-5.1-5.1L1351.7,565.8L1351.7,565.8z"/>
	<path display="inline" d="M1454.1,485.5c0-8.5,6.8-15.4,15.4-15.4s15.4,6.8,15.4,15.4c0,8.5-6.8,15.4-15.4,15.4
		S1454.1,494.1,1454.1,485.5z M1459.2,565.8c0-3.4,3.4-5.1,5.1-5.1h10.2c3.4,0,5.1,3.4,5.1,5.1v114.3c0,3.4-3.4,5.1-5.1,5.1h-10.2
		c-3.4,0-5.1-3.4-5.1-5.1V565.8z"/>
	<path display="inline" d="M1525.8,565.8c0-3.4,3.4-5.1,5.1-5.1h5.1c3.4,0,5.1,1.7,5.1,3.4l3.4,10.2c0,0,15.4-17.1,41-17.1
		c18.8,0,32.4,6.8,41,20.5c1.7-1.7,22.2-20.5,47.8-20.5c35.8,0,49.5,23.9,49.5,56.3v66.6c0,3.4-3.4,5.1-5.1,5.1h-10.2
		c-3.4,0-5.1-3.4-5.1-5.1v-66.6c0-23.9-10.2-35.8-29-35.8c-20.5,0-34.1,13.7-39.3,18.8c1.7,5.1,1.7,11.9,1.7,18.8v66.6
		c0,3.4-3.4,5.1-5.1,5.1h-10.2c-3.4,0-5.1-3.4-5.1-5.1v-66.6c0-23.9-11.9-35.8-30.7-35.8c-22.2,0-35.8,18.8-35.8,18.8v85.3
		c0,3.4-3.4,5.1-5.1,5.1h-10.2c-3.4,0-5.1-3.4-5.1-5.1L1525.8,565.8L1525.8,565.8z"/>
	<path display="inline" d="M1821,557.2c32.4,0,58,25.6,58,58c0,1.7,0,6.8-1.7,8.5c0,3.4-3.4,5.1-5.1,5.1h-92.2
		c1.7,22.2,20.5,41,42.7,41c13.7,0,23.9-5.1,32.4-8.5c5.1-1.7,6.8-5.1,8.5-1.7c1.7,1.7,3.4,5.1,5.1,6.8c1.7,3.4,3.4,5.1-1.7,8.5
		c-8.5,5.1-25.6,15.4-46.1,15.4c-39.3,0-63.1-30.7-63.1-66.6C1759.6,587.9,1783.5,557.2,1821,557.2z M1856.9,611.8
		c-1.7-18.8-15.4-35.8-35.8-35.8c-22.2,0-37.5,15.4-39.3,35.8H1856.9z"/>
</g>
<g>
	<path fill="#FFFFFF" d="M421.5,678.4h-32.4V487.3h49.5l58,119.5l58-119.5h49.5v191.1h-32.4V529.9l-66.6,131.4h-18.8l-66.6-133.1
		L421.5,678.4L421.5,678.4z"/>
	<path fill="#FFFFFF" d="M817.5,651.1c-18.8,18.8-42.7,29-71.7,29c-29,0-52.9-10.2-71.7-29c-18.8-18.8-29-42.7-29-70
		c0-27.3,10.2-51.2,29-70c18.8-18.8,42.7-29,71.7-29c29,0,52.9,10.2,71.7,29c18.8,18.8,29,42.7,29,70
		C846.5,610.1,836.3,632.3,817.5,651.1z M793.6,531.6c-13.7-13.7-29-20.5-47.8-20.5c-18.8,0-34.1,6.8-47.8,20.5
		c-13.7,13.7-18.8,29-18.8,49.5s6.8,35.8,18.8,49.5c13.7,13.7,29,20.5,47.8,20.5c18.8,0,34.1-6.8,47.8-20.5s18.8-29,18.8-49.5
		S807.3,545.3,793.6,531.6z"/>
	<path fill="#FFFFFF" d="M1030.8,512.9c18.8,17.1,27.3,39.3,27.3,70c0,29-8.5,52.9-27.3,70c-17.1,17.1-44.4,25.6-81.9,25.6h-61.4
		V487.3h64.9C986.5,487.3,1013.8,495.8,1030.8,512.9z M1025.7,582.8c0-44.4-25.6-64.9-75.1-64.9h-32.4v131.4h37.5
		c23.9,0,41-5.1,52.9-17.1C1020.6,620.4,1025.7,605,1025.7,582.8z"/>
	<path fill="#FFFFFF" d="M1228.8,504.3c13.7,11.9,20.5,29,20.5,52.9s-6.8,41-20.5,51.2s-34.1,17.1-63.1,17.1h-25.6v52.9h-42.7V487.3
		h68.3C1194.7,487.3,1215.1,492.4,1228.8,504.3z M1198.1,579.4c5.1-5.1,6.8-13.7,6.8-25.6c0-11.9-3.4-18.8-10.2-23.9
		s-17.1-6.8-30.7-6.8h-23.9v64.9h29C1182.7,587.9,1193,584.5,1198.1,579.4z"/>
	<path fill="#FFFFFF" d="M1355.1,567.5c-11.9,0-20.5,5.1-27.3,13.7c-6.8,8.5-8.5,20.5-8.5,34.1v63.1h-41V531.6h41v18.8
		c5.1-6.8,11.9-11.9,20.5-15.4s15.4-6.8,23.9-6.8v39.3H1355.1z"/>
	<path fill="#FFFFFF" d="M1394.3,512.9c-5.1-5.1-6.8-10.2-6.8-17.1s1.7-11.9,6.8-17.1c5.1-5.1,10.2-6.8,17.1-6.8s11.9,1.7,17.1,6.8
		c5.1,5.1,6.8,10.2,6.8,17.1s-1.7,11.9-6.8,17.1c-5.1,5.1-10.2,6.8-17.1,6.8S1397.8,518,1394.3,512.9z M1431.9,678.4h-41V531.6h41
		V678.4z"/>
	<path fill="#FFFFFF" d="M1604.3,599.9v78.5h-41v-80.2c0-11.9-1.7-20.5-5.1-25.6c-3.4-5.1-8.5-8.5-17.1-8.5s-15.4,3.4-20.5,8.5
		c-5.1,5.1-8.5,15.4-8.5,25.6v80.2h-41V531.6h41v17.1c11.9-11.9,23.9-18.8,39.3-18.8c8.5,0,17.1,3.4,25.6,8.5
		c6.8,5.1,13.7,11.9,17.1,20.5c5.1-8.5,13.7-15.4,22.2-20.5c10.2-5.1,18.8-6.8,29-6.8c17.1,0,30.7,5.1,41,15.4
		c10.2,10.2,15.4,25.6,15.4,44.4v87h-41v-80.2c0-22.2-8.5-34.1-25.6-34.1c-8.5,0-15.4,3.4-20.5,8.5
		C1607.7,579.4,1604.3,587.9,1604.3,599.9z"/>
	<path fill="#FFFFFF" d="M1865.4,656.2c-17.1,15.4-35.8,23.9-58,23.9s-41-6.8-54.6-20.5c-15.4-13.7-22.2-32.4-22.2-54.6
		c0-23.9,6.8-41,22.2-54.6c15.4-13.7,32.4-20.5,52.9-20.5c20.5,0,37.5,6.8,51.2,18.8c13.7,11.9,20.5,29,20.5,49.5v22.2h-107.5
		c1.7,8.5,5.1,15.4,11.9,20.5s15.4,6.8,23.9,6.8c13.7,0,25.6-5.1,35.8-13.7L1865.4,656.2z M1826.1,569.2c-5.1-5.1-11.9-6.8-20.5-6.8
		s-15.4,1.7-22.2,6.8c-6.8,5.1-10.2,11.9-11.9,20.5h64.9C1834.7,581.1,1833,574.3,1826.1,569.2z"/>
	<path fill="#FFFFFF" d="M279.9,570.9v32.4h35.8v34.1c-11.9,8.5-27.3,11.9-46.1,11.9s-34.1-6.8-46.1-18.8
		c-11.9-11.9-18.8-29-18.8-49.5c0-20.5,6.8-35.8,20.5-49.5s29-18.8,47.8-18.8c10.2,0,18.8,1.7,25.6,3.4s15.4,6.8,22.2,13.7
		l17.1-23.9c-18.8-15.4-41-23.9-68.3-23.9c-27.3,0-51.2,10.2-70,29c-18.8,18.8-29,42.7-29,71.7c0,29,10.2,51.2,29,70
		s42.7,27.3,71.7,27.3c34.1,0,59.7-10.2,76.8-29V605v-18.8v-13.7L279.9,570.9L279.9,570.9z"/>
</g>
<g enable-background="new    ">
	<path fill="#FFFFFF" d="M1749.9,375.2c9.3,2.5,15.6,7.6,19.1,15.3c3.4,7.7,3.6,17.4,0.5,28.9c-3.1,11.6-8.1,19.9-15,24.9
		c-6.9,5-14.9,6.3-24.1,3.9c-4.6-1.2-8.6-3.2-11.9-5.9c-3.3-2.7-5.8-6.2-7.5-10.4l-0.8-0.2l-4.7,8.5l-7.7-2.1l26.8-100.2l10.7,2.9
		l-6.5,24.3c-1.5,5.5-2.9,10.3-4.4,14.5l0.5,0.1C1731.8,374.1,1740.1,372.6,1749.9,375.2z M1746,383.7c-7.3-2-13.1-1.3-17.5,2.1
		c-4.3,3.3-7.8,9.9-10.5,19.9c-2.7,9.9-2.9,17.5-0.7,22.6c2.2,5.2,6.9,8.7,14.2,10.7c6.6,1.8,12.1,0.7,16.6-3.2
		c4.5-3.9,8-10.4,10.4-19.3c2.5-9.2,2.7-16.5,0.7-21.8C1757.1,389.1,1752.7,385.5,1746,383.7z"/>
	<path fill="#FFFFFF" d="M1808.1,469.1c-10.4-2.8-17.8-8.2-22.1-16.1c-4.3-8-5-17.6-2-28.9c3-11.4,8.3-19.7,15.7-24.9
		c7.4-5.2,15.8-6.5,25.3-4c8.8,2.4,15.1,7.2,18.7,14.4s4.1,15.6,1.6,25.1l-1.8,6.8l-48.6-13c-2,8.3-1.6,15.2,1.2,20.5
		c2.8,5.4,7.8,9,15,10.9c7.6,2,15.5,2.5,23.8,1.3l-2.6,9.5c-4.2,0.6-8.1,0.8-11.7,0.6C1817.1,471.1,1812.9,470.3,1808.1,469.1z
		 M1822.4,404.1c-5.7-1.5-10.7-0.9-15,1.9c-4.4,2.8-7.7,7.4-10.1,13.7l36.9,9.9c1.8-6.7,1.7-12.3-0.4-16.7S1828,405.6,1822.4,404.1z
		"/>
	<path fill="#FFFFFF" d="M1877.5,478.2c1.9,0.5,3.8,0.9,5.6,1c1.8,0.2,3.3,0.3,4.4,0.3l-2.2,8.2c-1.3,0.2-3.1,0.3-5.5,0
		c-2.4-0.2-4.4-0.6-6.2-1.1c-13.7-3.7-18.6-12.7-14.7-27.1l11.2-42l-10.1-2.7l1.4-5.2l11.3-1.7l8.5-13.9l6.2,1.7l-4.4,16.4l20.5,5.5
		l-2.2,8.3l-20.5-5.5l-11.1,41.5c-1.1,4.3-1,7.8,0.4,10.6C1871.5,475.4,1873.9,477.2,1877.5,478.2z"/>
	<path fill="#FFFFFF" d="M1942.6,503.7l0.6-10.6l-0.5-0.1c-4.7,3.5-9,5.5-12.9,6.2c-3.9,0.6-8.5,0.2-13.7-1.2c-7-1.9-12-5.1-15-9.8
		s-3.6-10.3-1.8-17c3.8-14.3,17.2-18.7,40.2-13.2l12.1,2.8l1.2-4.4c1.5-5.5,1.4-9.9-0.3-13.2c-1.7-3.3-5.1-5.6-10.4-7
		c-5.9-1.6-13-1.6-21.4,0.1l-1.1-9.1c4-1,8.2-1.4,12.6-1.4c4.4,0,8.7,0.6,12.9,1.7c8.4,2.3,14.1,5.8,17.2,10.6
		c3.1,4.8,3.5,11.4,1.3,19.6l-12.9,48.2L1942.6,503.7z M1920.5,489.7c6.7,1.8,12.4,1.4,17.1-1.3c4.8-2.6,8-7.2,9.8-13.8l1.7-6.4
		l-10.8-2.4c-8.6-2-15.1-2.3-19.4-1c-4.4,1.3-7.2,4.5-8.6,9.4c-1,3.9-0.7,7.1,1.1,9.8C1913.3,486.7,1916.3,488.6,1920.5,489.7z"/>
</g>
</svg>
