<?xml version="1.0" encoding="utf-8"?>
<!-- Generator: Adobe Illustrator 18.0.0, SVG Export Plug-In . SVG Version: 6.00 Build 0)  -->
<!DOCTYPE svg PUBLIC "-//W3C//DTD SVG 1.1//EN" "http://www.w3.org/Graphics/SVG/1.1/DTD/svg11.dtd">
<svg version="1.1" id="Layer_1" xmlns="http://www.w3.org/2000/svg" xmlns:xlink="http://www.w3.org/1999/xlink" x="0px" y="0px"
	 viewBox="0 0 260 260" enable-background="new 0 0 260 260" xml:space="preserve">
<g display="none">
	<path display="inline" d="M36,115.5c3.5,0,7.1,1.5,9.7,3.7c0.4,0.2,0.4,0.6,0.2,1.1l-3.3,3.5c-0.2,0.2-0.6,0.2-1.1,0
		c-1.5-1.5-3.3-2-5.4-2c-4.5,0-8,3.7-8,8.2c0,4.5,3.7,8,8,8c1.1,0,2.4-0.2,3.7-0.6V135h-2.6c-0.4,0-0.6-0.2-0.6-0.6v-4.1
		c0-0.4,0.2-0.6,0.6-0.6h8c0.4,0,0.6,0.4,0.6,0.6V141c0,0.2-0.2,0.6-0.2,0.6s-4.1,2.6-10,2.6c-8,0-14.5-6.3-14.5-14.5
		S28,115.5,36,115.5z"/>
	<path display="inline" d="M54.6,116.1c0-0.4,0.4-0.6,0.6-0.6h0.6c0.2,0,0.6,0.2,0.6,0.4l9.3,17.5h0.2l9.3-17.5
		c0.2-0.2,0.4-0.4,0.6-0.4h0.6c0.2,0,0.6,0.2,0.6,0.6l4.5,27.1c0.2,0.6-0.2,0.9-0.6,0.9h-4.8c-0.4,0-0.6-0.2-0.6-0.6l-2-12.6h-0.2
		l-6.5,13.2c-0.2,0.2-0.4,0.4-0.6,0.4h-0.6c-0.2,0-0.6-0.2-0.6-0.4l-6.7-13.2h-0.2l-2,12.8c0,0.2-0.4,0.6-0.6,0.6h-4.8
		c-0.4,0-0.9-0.4-0.6-0.9L54.6,116.1z"/>
	<path display="inline" d="M99.9,115.5c8,0,14.5,6.5,14.5,14.5s-6.5,14.5-14.5,14.5S85.4,138,85.4,130S91.6,115.5,99.9,115.5z
		 M99.9,138c4.5,0,8-3.7,8-8s-3.7-8-8-8c-4.3,0-8,3.7-8,8C91.9,134.3,95.5,138,99.9,138z"/>
	<path display="inline" d="M119.4,116.6c0-0.4,0.2-0.6,0.6-0.6h9.8c7.8,0,14.1,6.3,14.1,14.1s-6.3,14.1-14.1,14.1H120
		c-0.4,0-0.6-0.4-0.6-0.6C119.4,143.4,119.4,116.6,119.4,116.6z M129.4,138.2c4.5,0,8-3.7,8-8.2c0-4.5-3.3-8.2-8-8.2h-3.9V138
		L129.4,138.2L129.4,138.2z"/>
	<path display="inline" d="M149.7,116.6c0-0.4,0.2-0.6,0.6-0.6h8.9c5,0,9.1,4.1,9.1,8.9c0,5-4.1,9.1-8.9,9.1h-6.7v9.5
		c0,0.4-0.4,0.6-0.6,0.6h-1.5c-0.4,0-0.6-0.4-0.6-0.6L149.7,116.6L149.7,116.6z M159.3,130.9c3.3,0,6.3-2.8,6.3-6.3
		c0-3.3-2.8-5.9-6.3-5.9h-6.5v11.9C152.8,130.9,159.3,130.9,159.3,130.9z"/>
	<path display="inline" d="M171.6,128.7c0-0.4,0.4-0.6,0.6-0.6h0.6c0.2,0,0.6,0.2,0.6,0.6l0.2,1.1c0,0,1.5-2.2,5-2.2
		c1.1,0,3.3,0.2,2.8,1.3l-0.4,1.5c-0.2,0.6-0.6,0.6-1.1,0.4c-0.4-0.2-1.1-0.2-1.5-0.2c-3,0-4.5,2.4-4.5,2.4v10.8
		c0,0.4-0.4,0.6-0.6,0.6h-1.3c-0.4,0-0.6-0.4-0.6-0.6L171.6,128.7L171.6,128.7z"/>
	<path display="inline" d="M184.6,118.5c0-1.1,0.9-2,2-2s2,0.9,2,2c0,1.1-0.9,2-2,2S184.6,119.6,184.6,118.5z M185.3,128.7
		c0-0.4,0.4-0.6,0.6-0.6h1.3c0.4,0,0.6,0.4,0.6,0.6v14.5c0,0.4-0.4,0.6-0.6,0.6h-1.3c-0.4,0-0.6-0.4-0.6-0.6V128.7z"/>
	<path display="inline" d="M193.7,128.7c0-0.4,0.4-0.6,0.6-0.6h0.6c0.4,0,0.6,0.2,0.6,0.4l0.4,1.3c0,0,2-2.2,5.2-2.2
		c2.4,0,4.1,0.9,5.2,2.6c0.2-0.2,2.8-2.6,6.1-2.6c4.5,0,6.3,3,6.3,7.1v8.5c0,0.4-0.4,0.6-0.6,0.6h-1.3c-0.4,0-0.6-0.4-0.6-0.6v-8.5
		c0-3-1.3-4.5-3.7-4.5c-2.6,0-4.3,1.7-5,2.4c0.2,0.6,0.2,1.5,0.2,2.4v8.5c0,0.4-0.4,0.6-0.6,0.6h-1.3c-0.4,0-0.6-0.4-0.6-0.6V135
		c0-3-1.5-4.5-3.9-4.5c-2.8,0-4.5,2.4-4.5,2.4v10.8c0,0.4-0.4,0.6-0.6,0.6h-1.3c-0.4,0-0.6-0.4-0.6-0.6L193.7,128.7L193.7,128.7z"/>
	<path display="inline" d="M231.2,127.6c4.1,0,7.4,3.3,7.4,7.4c0,0.2,0,0.9-0.2,1.1c0,0.4-0.4,0.6-0.6,0.6H226
		c0.2,2.8,2.6,5.2,5.4,5.2c1.7,0,3-0.6,4.1-1.1c0.6-0.2,0.9-0.6,1.1-0.2c0.2,0.2,0.4,0.6,0.6,0.9c0.2,0.4,0.4,0.6-0.2,1.1
		c-1.1,0.6-3.3,2-5.9,2c-5,0-8-3.9-8-8.5C223.4,131.5,226.4,127.6,231.2,127.6z M235.7,134.5c-0.2-2.4-2-4.5-4.5-4.5
		c-2.8,0-4.8,2-5,4.5H235.7z"/>
</g>
<g>
	<path fill="#FFFFFF" d="M49.4,143v-24.3h6.3l7.4,15.2l7.4-15.2h6.3V143h-4.1v-18.9l-8.5,16.7h-2.4l-8.5-16.9V143H49.4z"/>
	<path fill="#FFFFFF" d="M103.8,139.5c-2.4,2.4-5.4,3.7-9.1,3.7s-6.7-1.3-9.1-3.7c-2.4-2.4-3.7-5.4-3.7-8.9s1.3-6.5,3.7-8.9
		c2.4-2.4,5.4-3.7,9.1-3.7s6.7,1.3,9.1,3.7c2.4,2.4,3.7,5.4,3.7,8.9C107.5,134.3,106.2,137.1,103.8,139.5z M100.8,124.4
		c-1.7-1.7-3.7-2.6-6.1-2.6s-4.3,0.9-6.1,2.6c-1.7,1.7-2.4,3.7-2.4,6.3s0.9,4.5,2.4,6.3c1.7,1.7,3.7,2.6,6.1,2.6s4.3-0.9,6.1-2.6
		c1.7-1.7,2.4-3.7,2.4-6.3S102.5,126.1,100.8,124.4z"/>
	<path fill="#FFFFFF" d="M130.9,122c2.4,2.2,3.5,5,3.5,8.9c0,3.7-1.1,6.7-3.5,8.9c-2.2,2.2-5.6,3.3-10.4,3.3h-7.8v-24.3h8.2
		C125.2,118.7,128.7,119.8,130.9,122z M130.2,130.9c0-5.6-3.3-8.2-9.5-8.2h-4.1v16.7h4.8c3,0,5.2-0.6,6.7-2.2
		C129.6,135.6,130.2,133.7,130.2,130.9z"/>
	<path fill="#FFFFFF" d="M156,120.9c1.7,1.5,2.6,3.7,2.6,6.7s-0.9,5.2-2.6,6.5c-1.7,1.3-4.3,2.2-8,2.2h-3.3v6.7h-5.4v-24.3h8.7
		C151.7,118.7,154.3,119.4,156,120.9z M152.1,130.4c0.6-0.6,0.9-1.7,0.9-3.2c0-1.5-0.4-2.4-1.3-3c-0.9-0.6-2.2-0.9-3.9-0.9h-3v8.2
		h3.7C150.1,131.5,151.5,131.1,152.1,130.4z"/>
	<path fill="#FFFFFF" d="M172,128.9c-1.5,0-2.6,0.6-3.5,1.7c-0.9,1.1-1.1,2.6-1.1,4.3v8h-5.2v-18.6h5.2v2.4c0.6-0.9,1.5-1.5,2.6-2
		c1.1-0.4,2-0.9,3-0.9v5C173.1,128.9,172,128.9,172,128.9z"/>
	<path fill="#FFFFFF" d="M177,122c-0.6-0.6-0.9-1.3-0.9-2.2s0.2-1.5,0.9-2.2c0.6-0.6,1.3-0.9,2.2-0.9s1.5,0.2,2.2,0.9
		c0.6,0.6,0.9,1.3,0.9,2.2s-0.2,1.5-0.9,2.2c-0.6,0.6-1.3,0.9-2.2,0.9S177.5,122.6,177,122z M181.8,143h-5.2v-18.6h5.2V143z"/>
	<path fill="#FFFFFF" d="M203.7,133v10h-5.2v-10.2c0-1.5-0.2-2.6-0.6-3.3c-0.4-0.6-1.1-1.1-2.2-1.1s-2,0.4-2.6,1.1
		c-0.6,0.6-1.1,2-1.1,3.3V143h-5.2v-18.6h5.2v2.2c1.5-1.5,3-2.4,5-2.4c1.1,0,2.2,0.4,3.3,1.1c0.9,0.6,1.7,1.5,2.2,2.6
		c0.6-1.1,1.7-2,2.8-2.6c1.3-0.6,2.4-0.9,3.7-0.9c2.2,0,3.9,0.6,5.2,2c1.3,1.3,2,3.3,2,5.6v11h-5.2v-10.2c0-2.8-1.1-4.3-3.3-4.3
		c-1.1,0-2,0.4-2.6,1.1C204.1,130.4,203.7,131.5,203.7,133z"/>
	<path fill="#FFFFFF" d="M236.8,140.2c-2.2,2-4.5,3-7.4,3c-2.8,0-5.2-0.9-6.9-2.6c-2-1.7-2.8-4.1-2.8-6.9c0-3,0.9-5.2,2.8-6.9
		c2-1.7,4.1-2.6,6.7-2.6s4.8,0.9,6.5,2.4c1.7,1.5,2.6,3.7,2.6,6.3v2.8h-13.6c0.2,1.1,0.6,2,1.5,2.6c0.9,0.6,2,0.9,3,0.9
		c1.7,0,3.2-0.6,4.5-1.7L236.8,140.2z M231.8,129.1c-0.6-0.6-1.5-0.9-2.6-0.9s-2,0.2-2.8,0.9s-1.3,1.5-1.5,2.6h8.2
		C232.9,130.6,232.7,129.8,231.8,129.1z"/>
	<path fill="#FFFFFF" d="M35.5,133.5h4.5v4.3c-1.5,1.1-3.5,1.5-5.9,1.5s-4.3-0.9-5.9-2.4c-1.5-1.5-2.4-3.7-2.4-6.3s0.9-4.5,2.6-6.3
		s3.7-2.4,6.1-2.4c1.3,0,2.4,0.2,3.3,0.4c0.9,0.2,2,0.9,2.8,1.7l2.2-3c-2.4-2-5.2-3-8.7-3c-3.5,0-6.5,1.3-8.9,3.7s-3.7,5.4-3.7,9.1
		s1.3,6.5,3.7,8.9s5.4,3.5,9.1,3.5c4.3,0,7.6-1.3,9.7-3.7v-10h-8.7V133.5z"/>
</g>
<g enable-background="new    ">
	<path fill="#FFFFFF" d="M222.2,104.5c1.2,0.3,2,1,2.4,1.9c0.4,1,0.5,2.2,0.1,3.7c-0.4,1.5-1,2.5-1.9,3.2s-1.9,0.8-3.1,0.5
		c-0.6-0.2-1.1-0.4-1.5-0.7c-0.4-0.3-0.7-0.8-1-1.3l-0.1,0l-0.6,1.1l-1-0.3l3.4-12.7l1.4,0.4l-0.8,3.1c-0.2,0.7-0.4,1.3-0.6,1.8
		l0.1,0C219.9,104.4,220.9,104.2,222.2,104.5z M221.7,105.6c-0.9-0.3-1.7-0.2-2.2,0.3c-0.5,0.4-1,1.3-1.3,2.5
		c-0.3,1.3-0.4,2.2-0.1,2.9c0.3,0.7,0.9,1.1,1.8,1.4c0.8,0.2,1.5,0.1,2.1-0.4c0.6-0.5,1-1.3,1.3-2.5c0.3-1.2,0.3-2.1,0.1-2.8
		C223.1,106.3,222.5,105.8,221.7,105.6z"/>
	<path fill="#FFFFFF" d="M229.5,116.4c-1.3-0.4-2.3-1-2.8-2c-0.5-1-0.6-2.2-0.3-3.7c0.4-1.4,1.1-2.5,2-3.2s2-0.8,3.2-0.5
		c1.1,0.3,1.9,0.9,2.4,1.8c0.5,0.9,0.5,2,0.2,3.2l-0.2,0.9l-6.2-1.7c-0.3,1.1-0.2,1.9,0.2,2.6c0.4,0.7,1,1.1,1.9,1.4
		c1,0.3,2,0.3,3,0.2l-0.3,1.2c-0.5,0.1-1,0.1-1.5,0.1C230.7,116.7,230.2,116.6,229.5,116.4z M231.4,108.2c-0.7-0.2-1.4-0.1-1.9,0.2
		c-0.6,0.4-1,0.9-1.3,1.7l4.7,1.3c0.2-0.9,0.2-1.6-0.1-2.1C232.5,108.7,232.1,108.4,231.4,108.2z"/>
	<path fill="#FFFFFF" d="M238.4,117.6c0.2,0.1,0.5,0.1,0.7,0.1c0.2,0,0.4,0,0.6,0l-0.3,1c-0.2,0-0.4,0-0.7,0c-0.3,0-0.6-0.1-0.8-0.1
		c-1.7-0.5-2.4-1.6-1.9-3.4l1.4-5.3l-1.3-0.3l0.2-0.7l1.4-0.2l1.1-1.8l0.8,0.2l-0.6,2.1l2.6,0.7l-0.3,1.1l-2.6-0.7l-1.4,5.3
		c-0.1,0.5-0.1,1,0.1,1.3C237.6,117.2,237.9,117.5,238.4,117.6z"/>
	<path fill="#FFFFFF" d="M246.6,120.8l0.1-1.3l-0.1,0c-0.6,0.4-1.1,0.7-1.6,0.8c-0.5,0.1-1.1,0-1.7-0.2c-0.9-0.2-1.5-0.6-1.9-1.2
		c-0.4-0.6-0.5-1.3-0.2-2.2c0.5-1.8,2.2-2.4,5.1-1.7l1.5,0.4l0.2-0.6c0.2-0.7,0.2-1.3,0-1.7c-0.2-0.4-0.6-0.7-1.3-0.9
		c-0.7-0.2-1.7-0.2-2.7,0l-0.1-1.2c0.5-0.1,1-0.2,1.6-0.2c0.6,0,1.1,0.1,1.6,0.2c1.1,0.3,1.8,0.7,2.2,1.3c0.4,0.6,0.4,1.4,0.2,2.5
		l-1.6,6.1L246.6,120.8z M243.8,119c0.9,0.2,1.6,0.2,2.2-0.2c0.6-0.3,1-0.9,1.2-1.8l0.2-0.8l-1.4-0.3c-1.1-0.3-1.9-0.3-2.5-0.1
		c-0.6,0.2-0.9,0.6-1.1,1.2c-0.1,0.5-0.1,0.9,0.1,1.2C242.9,118.7,243.3,118.9,243.8,119z"/>
</g>
</svg>
